<svg width="1440" height="800" viewBox="0 0 1440 800" fill="none" xmlns="http://www.w3.org/2000/svg">
  <rect width="1440" height="800" fill="#121212"/>
  <g opacity="0.1">
    <line x1="0" y1="50" x2="1440" y2="50" stroke="#FFB300" stroke-width="0.5"/>
    <line x1="0" y1="100" x2="1440" y2="100" stroke="#FFB300" stroke-width="0.5"/>
    <line x1="0" y1="150" x2="1440" y2="150" stroke="#FFB300" stroke-width="0.5"/>
    <line x1="0" y1="200" x2="1440" y2="200" stroke="#FFB300" stroke-width="0.5"/>
    <line x1="0" y1="250" x2="1440" y2="250" stroke="#FFB300" stroke-width="0.5"/>
    <line x1="0" y1="300" x2="1440" y2="300" stroke="#FFB300" stroke-width="0.5"/>
    <line x1="0" y1="350" x2="1440" y2="350" stroke="#FFB300" stroke-width="0.5"/>
    <line x1="0" y1="400" x2="1440" y2="400" stroke="#FFB300" stroke-width="0.5"/>
    <line x1="0" y1="450" x2="1440" y2="450" stroke="#FFB300" stroke-width="0.5"/>
    <line x1="0" y1="500" x2="1440" y2="500" stroke="#FFB300" stroke-width="0.5"/>
    <line x1="0" y1="550" x2="1440" y2="550" stroke="#FFB300" stroke-width="0.5"/>
    <line x1="0" y1="600" x2="1440" y2="600" stroke="#FFB300" stroke-width="0.5"/>
    <line x1="0" y1="650" x2="1440" y2="650" stroke="#FFB300" stroke-width="0.5"/>
    <line x1="0" y1="700" x2="1440" y2="700" stroke="#FFB300" stroke-width="0.5"/>
    <line x1="0" y1="750" x2="1440" y2="750" stroke="#FFB300" stroke-width="0.5"/>
    
    <line x1="50" y1="0" x2="50" y2="800" stroke="#FFB300" stroke-width="0.5"/>
    <line x1="100" y1="0" x2="100" y2="800" stroke="#FFB300" stroke-width="0.5"/>
    <line x1="150" y1="0" x2="150" y2="800" stroke="#FFB300" stroke-width="0.5"/>
    <line x1="200" y1="0" x2="200" y2="800" stroke="#FFB300" stroke-width="0.5"/>
    <line x1="250" y1="0" x2="250" y2="800" stroke="#FFB300" stroke-width="0.5"/>
    <line x1="300" y1="0" x2="300" y2="800" stroke="#FFB300" stroke-width="0.5"/>
    <line x1="350" y1="0" x2="350" y2="800" stroke="#FFB300" stroke-width="0.5"/>
    <line x1="400" y1="0" x2="400" y2="800" stroke="#FFB300" stroke-width="0.5"/>
    <line x1="450" y1="0" x2="450" y2="800" stroke="#FFB300" stroke-width="0.5"/>
    <line x1="500" y1="0" x2="500" y2="800" stroke="#FFB300" stroke-width="0.5"/>
    <line x1="550" y1="0" x2="550" y2="800" stroke="#FFB300" stroke-width="0.5"/>
    <line x1="600" y1="0" x2="600" y2="800" stroke="#FFB300" stroke-width="0.5"/>
    <line x1="650" y1="0" x2="650" y2="800" stroke="#FFB300" stroke-width="0.5"/>
    <line x1="700" y1="0" x2="700" y2="800" stroke="#FFB300" stroke-width="0.5"/>
    <line x1="750" y1="0" x2="750" y2="800" stroke="#FFB300" stroke-width="0.5"/>
    <line x1="800" y1="0" x2="800" y2="800" stroke="#FFB300" stroke-width="0.5"/>
    <line x1="850" y1="0" x2="850" y2="800" stroke="#FFB300" stroke-width="0.5"/>
    <line x1="900" y1="0" x2="900" y2="800" stroke="#FFB300" stroke-width="0.5"/>
    <line x1="950" y1="0" x2="950" y2="800" stroke="#FFB300" stroke-width="0.5"/>
    <line x1="1000" y1="0" x2="1000" y2="800" stroke="#FFB300" stroke-width="0.5"/>
    <line x1="1050" y1="0" x2="1050" y2="800" stroke="#FFB300" stroke-width="0.5"/>
    <line x1="1100" y1="0" x2="1100" y2="800" stroke="#FFB300" stroke-width="0.5"/>
    <line x1="1150" y1="0" x2="1150" y2="800" stroke="#FFB300" stroke-width="0.5"/>
    <line x1="1200" y1="0" x2="1200" y2="800" stroke="#FFB300" stroke-width="0.5"/>
    <line x1="1250" y1="0" x2="1250" y2="800" stroke="#FFB300" stroke-width="0.5"/>
    <line x1="1300" y1="0" x2="1300" y2="800" stroke="#FFB300" stroke-width="0.5"/>
    <line x1="1350" y1="0" x2="1350" y2="800" stroke="#FFB300" stroke-width="0.5"/>
    <line x1="1400" y1="0" x2="1400" y2="800" stroke="#FFB300" stroke-width="0.5"/>
  </g>
  
  <circle cx="720" cy="400" r="300" stroke="#B00020" stroke-width="1" fill="none" opacity="0.15"/>
  <circle cx="720" cy="400" r="200" stroke="#B00020" stroke-width="1" fill="none" opacity="0.15"/>
  <circle cx="720" cy="400" r="100" stroke="#B00020" stroke-width="1" fill="none" opacity="0.15"/>
  
  <rect x="620" y="300" width="200" height="200" stroke="#FFB300" stroke-width="1" rx="5" fill="none" opacity="0.1"/>
  <rect x="670" y="350" width="100" height="100" stroke="#FFB300" stroke-width="1" rx="5" fill="none" opacity="0.15"/>
</svg>